<?xml version="1.0" encoding="UTF-8" standalone="no"?>
<svg
   width="39.332pt"
   height="15.529pt"
   viewBox="0 0 39.332 15.529"
   version="1.1"
   id="svg13"
   xmlns:xlink="http://www.w3.org/1999/xlink"
   xmlns="http://www.w3.org/2000/svg"
   xmlns:svg="http://www.w3.org/2000/svg">
  <defs
     id="defs6">
    <g
       id="g4">
      <g
         id="glyph-0-0">
        <path
           d="M 2.734375 -7.890625 C 2.734375 -8.65625 2.734375 -8.796875 3.984375 -8.796875 C 4.796875 -8.796875 5.84375 -8.359375 5.84375 -6.90625 C 5.84375 -5.6875 4.984375 -5.25 3.796875 -5.25 L 2.734375 -5.25 Z M 2.734375 -4.765625 L 3.734375 -4.765625 C 5.6875 -4.765625 6.515625 -3.65625 6.515625 -2.359375 C 6.515625 -1.3125 6.109375 -0.4375 3.9375 -0.4375 C 2.921875 -0.4375 2.734375 -0.8125 2.734375 -1.6875 Z M 0.265625 -9.28125 C 0.1875 -9.1875 0.1875 -8.890625 0.265625 -8.8125 C 1.28125 -8.765625 1.515625 -8.6875 1.515625 -7.5 L 1.515625 -1.75 C 1.515625 -0.5625 1.28125 -0.484375 0.265625 -0.4375 C 0.1875 -0.359375 0.1875 -0.0625 0.265625 0.03125 C 0.828125 0.015625 1.609375 0 2.140625 0 C 2.65625 0 3.03125 0.03125 4.234375 0.03125 C 7.078125 0.03125 7.84375 -1.40625 7.84375 -2.640625 C 7.84375 -4.015625 6.890625 -4.8125 5.640625 -5.15625 L 5.640625 -5.1875 C 6.359375 -5.546875 7 -6.296875 7 -7.078125 C 7 -8.03125 6.578125 -9.28125 3.921875 -9.28125 C 3.40625 -9.28125 2.640625 -9.25 2.125 -9.25 C 1.609375 -9.25 0.828125 -9.265625 0.265625 -9.28125 Z M 0.265625 -9.28125 "
           id="path1" />
      </g>
      <g
         id="glyph-0-1">
        <path
           d="M 2.640625 -5.140625 C 2.546875 -5.03125 2.46875 -5 2.46875 -5.140625 C 2.453125 -5.515625 2.421875 -6.078125 2.359375 -6.21875 C 2.328125 -6.296875 2.296875 -6.34375 2.1875 -6.34375 C 1.78125 -6.1875 1.40625 -6.046875 0.421875 -5.921875 C 0.390625 -5.84375 0.421875 -5.609375 0.4375 -5.515625 C 1.21875 -5.453125 1.375 -5.375 1.375 -4.546875 L 1.375 -1.75 C 1.375 -0.578125 1.234375 -0.515625 0.375 -0.4375 C 0.28125 -0.359375 0.28125 -0.0625 0.375 0.03125 C 0.796875 0.015625 1.375 0 1.953125 0 C 2.53125 0 2.953125 0.015625 3.390625 0.03125 C 3.46875 -0.0625 3.46875 -0.359375 3.390625 -0.4375 C 2.65625 -0.515625 2.515625 -0.578125 2.515625 -1.75 L 2.515625 -4.109375 C 2.515625 -4.40625 2.640625 -4.578125 2.75 -4.703125 C 3.296875 -5.234375 3.9375 -5.546875 4.5 -5.546875 C 4.796875 -5.546875 5.09375 -5.359375 5.265625 -5.03125 C 5.40625 -4.75 5.4375 -4.359375 5.4375 -3.9375 L 5.4375 -1.75 C 5.4375 -0.578125 5.296875 -0.515625 4.546875 -0.4375 C 4.46875 -0.359375 4.46875 -0.0625 4.546875 0.03125 C 4.984375 0.015625 5.4375 0 6.015625 0 C 6.578125 0 7.09375 0.015625 7.53125 0.03125 C 7.609375 -0.0625 7.609375 -0.359375 7.53125 -0.4375 C 6.734375 -0.515625 6.5625 -0.578125 6.5625 -1.75 L 6.5625 -3.890625 C 6.5625 -4.671875 6.515625 -5.359375 6.1875 -5.8125 C 5.9375 -6.125 5.5 -6.296875 4.984375 -6.296875 C 4.28125 -6.296875 3.484375 -6.109375 2.640625 -5.140625 Z M 2.640625 -5.140625 "
           id="path2" />
      </g>
      <g
         id="glyph-0-2">
        <path
           d="M 4.578125 -4 C 4.578125 -2.671875 3.90625 -2.390625 3.375 -2.390625 C 2.171875 -2.390625 2.03125 -3.40625 2.03125 -4.328125 C 2.03125 -5.328125 2.390625 -5.859375 3.1875 -5.859375 C 4.09375 -5.859375 4.578125 -5.1875 4.578125 -4 Z M 1.890625 0.140625 C 2.046875 0.1875 2.28125 0.21875 2.46875 0.21875 C 2.90625 0.21875 3.3125 0.171875 3.515625 0.171875 C 4.234375 0.171875 4.828125 0.1875 5.25 0.421875 C 5.8125 0.734375 5.984375 0.9375 5.984375 1.3125 C 5.984375 2.34375 4.453125 2.890625 3.171875 2.890625 C 2.65625 2.890625 1.453125 2.46875 1.453125 1.484375 C 1.453125 1 1.484375 0.640625 1.890625 0.140625 Z M 6.375 -5.546875 C 6.640625 -5.546875 6.90625 -5.8125 6.90625 -6.09375 C 6.90625 -6.390625 6.625 -6.625 6.234375 -6.625 C 5.859375 -6.625 5.171875 -6.390625 4.8125 -5.890625 C 4.640625 -6.015625 4.15625 -6.296875 3.3125 -6.296875 C 2.03125 -6.296875 0.859375 -5.4375 0.859375 -4.109375 C 0.859375 -3.34375 1.203125 -2.890625 1.609375 -2.515625 C 1.203125 -2.171875 0.96875 -1.546875 0.96875 -1.0625 C 0.96875 -0.546875 1.265625 -0.140625 1.640625 0.046875 C 0.859375 0.5 0.453125 1.15625 0.453125 1.78125 C 0.453125 3.03125 1.640625 3.40625 2.734375 3.40625 C 4.671875 3.40625 6.765625 2.484375 6.765625 0.9375 C 6.765625 0.46875 6.5625 0.109375 6.140625 -0.234375 C 5.578125 -0.6875 4.578125 -0.703125 4.046875 -0.703125 C 3.78125 -0.703125 3.421875 -0.671875 3.078125 -0.625 C 2.875 -0.609375 2.71875 -0.609375 2.65625 -0.609375 C 2.234375 -0.609375 1.734375 -0.796875 1.734375 -1.421875 C 1.734375 -1.703125 1.828125 -2.015625 2 -2.25 C 2.34375 -2.046875 2.734375 -1.953125 3.296875 -1.953125 C 4.5625 -1.953125 5.71875 -2.734375 5.71875 -4.140625 C 5.71875 -4.8125 5.515625 -5.203125 5.109375 -5.640625 C 5.203125 -5.78125 5.5 -5.984375 5.6875 -5.984375 C 5.78125 -5.984375 5.875 -5.9375 5.96875 -5.8125 C 6.03125 -5.6875 6.203125 -5.546875 6.375 -5.546875 Z M 6.375 -5.546875 "
           id="path3" />
      </g>
      <g
         id="glyph-0-3">
        <path
           d="M 0.59375 -2.9375 C 0.59375 -1.484375 1.5625 0.140625 3.59375 0.140625 C 4.515625 0.140625 5.21875 -0.1875 5.703125 -0.65625 C 6.359375 -1.296875 6.640625 -2.1875 6.640625 -3.0625 C 6.640625 -4.5625 5.828125 -6.296875 3.625 -6.296875 C 2.6875 -6.296875 1.90625 -5.90625 1.375 -5.296875 C 0.859375 -4.671875 0.59375 -3.84375 0.59375 -2.9375 Z M 3.40625 -5.796875 C 4.640625 -5.796875 5.40625 -4.671875 5.40625 -2.609375 C 5.40625 -0.796875 4.46875 -0.359375 3.796875 -0.359375 C 2.3125 -0.359375 1.828125 -2.171875 1.828125 -3.265625 C 1.828125 -4.515625 2.125 -5.796875 3.40625 -5.796875 Z M 3.40625 -5.796875 "
           id="path4" />
      </g>
    </g>
    <clipPath
       id="clip-0">
      <path
         clip-rule="nonzero"
         d="M 0 0 L 39.332031 0 L 39.332031 15.527344 L 0 15.527344 Z M 0 0 "
         id="path5" />
    </clipPath>
    <clipPath
       id="clip-1">
      <path
         clip-rule="nonzero"
         d="M 1 0 L 22 0 L 22 15.527344 L 1 15.527344 Z M 1 0 "
         id="path6" />
    </clipPath>
  </defs>
  <g
     clip-path="url(#clip-0)"
     id="g7">
    <path
       fill-rule="nonzero"
       fill="rgb(100%, 100%, 100%)"
       fill-opacity="1"
       stroke-width="0.3487"
       stroke-linecap="butt"
       stroke-linejoin="miter"
       stroke="rgb(0%, 0%, 0%)"
       stroke-opacity="1"
       stroke-miterlimit="10"
       d="M -18.073219 -15.244469 L 20.911156 -15.244469 L 20.911156 -0.0647812 L -18.073219 -0.0647812 Z M -18.073219 -15.244469 "
       transform="matrix(1, 0, 0, -1, 18.249, 0.111)"
       id="path7" />
  </g>
  <g
     fill="rgb(0%, 0%, 0%)"
     fill-opacity="1"
     id="g8">
    <use
       xlink:href="#glyph-0-0"
       x="1.868"
       y="10.745"
       id="use7" />
  </g>
  <g
     fill="rgb(0%, 0%, 0%)"
     fill-opacity="1"
     id="g10">
    <use
       xlink:href="#glyph-0-1"
       x="15.281697"
       y="10.745"
       id="use8" />
    <use
       xlink:href="#glyph-0-2"
       x="23.057337"
       y="10.745"
       id="use9" />
    <use
       xlink:href="#glyph-0-3"
       x="30.230437"
       y="10.745"
       id="use10" />
  </g>
  <path
     fill-rule="nonzero"
     fill="rgb(32.939148%, 21.174622%, 75.292969%)"
     fill-opacity="1"
     d="M 15.082031 2.851562 C 15.058594 2.648438 14.859375 2.464844 14.640625 2.492188 C 14.375 2.527344 13.511719 3.613281 13.191406 3.859375 C 13.113281 3.203125 13.359375 2.492188 13.308594 2.085938 C 13.277344 1.835938 13.101562 1.699219 12.851562 1.730469 C 12.601562 1.761719 12.480469 1.933594 12.511719 2.183594 C 12.570312 2.652344 12.925781 3.242188 13.003906 3.882812 C 12.605469 3.710938 11.542969 2.824219 11.292969 2.855469 C 11.074219 2.882812 10.914062 3.109375 10.9375 3.3125 C 10.992188 3.734375 12.433594 3.859375 12.929688 4.050781 C 12.46875 4.410156 11.546875 4.664062 11.332031 4.847656 C 11.234375 4.941406 11.136719 5.0625 11.15625 5.21875 C 11.183594 5.4375 11.378906 5.605469 11.597656 5.578125 C 11.878906 5.542969 12.710938 4.457031 13.046875 4.210938 C 13.125 4.867188 12.878906 5.578125 12.933594 6 C 12.960938 6.234375 13.152344 6.382812 13.402344 6.355469 C 13.636719 6.324219 13.753906 6.121094 13.730469 5.902344 C 13.667969 5.402344 13.328125 4.824219 13.25 4.1875 C 13.632812 4.359375 14.710938 5.242188 14.945312 5.214844 C 15.164062 5.1875 15.324219 4.960938 15.296875 4.742188 C 15.277344 4.585938 15.15625 4.507812 15.039062 4.441406 C 14.703125 4.277344 13.859375 4.253906 13.304688 4.003906 C 13.828125 3.609375 14.585938 3.464844 14.90625 3.222656 C 15.035156 3.125 15.101562 3.007812 15.082031 2.851562 Z M 15.082031 2.851562 "
     id="path10" />
  <g
     clip-path="url(#clip-1)"
     id="g11">
    <path
       fill="none"
       stroke-width="0.69746"
       stroke-linecap="butt"
       stroke-linejoin="miter"
       stroke="rgb(0%, 0%, 0%)"
       stroke-opacity="1"
       stroke-miterlimit="10"
       d="M -7.299781 -9.935875 L -7.299781 -9.217125 C -7.299781 -8.033531 -6.940406 -7.2015 -6.4365 -6.377281 "
       transform="matrix(1, 0, 0, -1, 18.249, 0.111)"
       id="path11" />
  </g>
  <path
     fill-rule="nonzero"
     fill="rgb(0%, 0%, 0%)"
     fill-opacity="1"
     d="M 11.296875 9.875 L 11.296875 10.746094 L 10.597656 10.746094 L 10.597656 9.875 Z M 11.296875 9.875 "
     id="path12" />
  <path
     fill-rule="nonzero"
     fill="rgb(0%, 0%, 0%)"
     fill-opacity="1"
     d="M 11.421875 6.464844 C 11.515625 6.308594 11.609375 6.152344 11.707031 6 C 11.816406 5.835938 12.03125 5.792969 12.191406 5.898438 C 12.351562 6.007812 12.398438 6.21875 12.292969 6.378906 C 12.199219 6.527344 12.109375 6.671875 12.023438 6.816406 C 11.820312 6.699219 11.621094 6.582031 11.421875 6.464844 Z M 11.421875 6.464844 "
     id="path13" />
</svg>
